<?xml version="1.0" standalone="no"?>
<!DOCTYPE svg PUBLIC "-//W3C//DTD SVG 20010904//EN"
 "http://www.w3.org/TR/2001/REC-SVG-20010904/DTD/svg10.dtd">
<svg version="1.0" xmlns="http://www.w3.org/2000/svg"
 width="192.000000pt" height="192.000000pt" viewBox="0 0 192.000000 192.000000"
 preserveAspectRatio="xMidYMid meet">
<metadata>
Created by potrace 1.14, written by Peter Selinger 2001-2017
</metadata>
<g transform="translate(0.000000,192.000000) scale(0.100000,-0.100000)"
fill="#000000" stroke="none">
<path d="M845 1599 c-333 -114 -369 -132 -381 -189 -4 -14 -80 -241 -170 -506
-174 -509 -178 -523 -125 -537 15 -4 642 194 659 208 8 7 -22 97 -34 102 -10
4 -433 -132 -510 -163 -10 -4 264 818 285 856 20 36 106 15 128 -32 6 -12 81
-261 168 -553 87 -292 164 -545 171 -563 11 -27 18 -32 46 -31 18 0 175 49
348 107 l315 107 3 36 c2 25 -46 199 -152 550 -85 283 -160 534 -166 559 -27
106 -97 160 -206 159 -48 0 -117 -20 -379 -110z m435 -14 c17 -9 30 -19 30
-24 0 -8 -467 -171 -498 -175 -7 0 -21 13 -32 30 l-20 31 217 76 c120 42 231
76 246 76 15 1 41 -6 57 -14z"/>
</g>
</svg>
