<?xml version="1.0" encoding="utf-8"?>
<!-- Generator: Adobe Illustrator 16.0.0, SVG Export Plug-In . SVG Version: 6.00 Build 0)  -->
<!DOCTYPE svg PUBLIC "-//W3C//DTD SVG 1.1//EN" "http://www.w3.org/Graphics/SVG/1.1/DTD/svg11.dtd">
<svg version="1.1" id="Layer_1" xmlns="http://www.w3.org/2000/svg" xmlns:xlink="http://www.w3.org/1999/xlink" x="0px" y="0px"
	 width="23.004px" height="15px" viewBox="0 0 23.004 15" enable-background="new 0 0 23.004 15" xml:space="preserve">
<path fill="#115F4C" d="M22.217,6.8H2.782l7.738-5.538c0.296-0.212,0.362-0.61,0.149-0.904c-0.211-0.294-0.62-0.356-0.914-0.145
	L0.361,6.969C0.19,7.092,0.088,7.291,0.088,7.503c0,0.211,0.102,0.41,0.272,0.534l9.395,6.752c0.116,0.084,0.248,0.123,0.382,0.123
	c0.204,0,0.405-0.096,0.532-0.273c0.213-0.295,0.146-0.729-0.149-0.939L2.783,8.111h19.434c0.363,0,0.656-0.292,0.656-0.655
	C22.873,7.095,22.578,6.8,22.217,6.8z"/>
</svg>
