<?xml version="1.0" encoding="utf-8"?>
<!-- Generator: Adobe Illustrator 16.0.0, SVG Export Plug-In . SVG Version: 6.00 Build 0)  -->
<!DOCTYPE svg PUBLIC "-//W3C//DTD SVG 1.1//EN" "http://www.w3.org/Graphics/SVG/1.1/DTD/svg11.dtd">
<svg version="1.1" id="Layer_1" xmlns="http://www.w3.org/2000/svg" xmlns:xlink="http://www.w3.org/1999/xlink" x="0px" y="0px"
	 width="31.167px" height="29.333px" viewBox="0 0 31.167 29.333" enable-background="new 0 0 31.167 29.333" xml:space="preserve">
<g>
	<path fill="#115F4C" d="M12.229,6.951C10.346,7.34,8.982,8.314,8.14,9.872c-0.844,1.623-1.363,3.928-1.558,6.911h6.036v11.391
		H1.034v-6.814c0-6.36,0.908-11.098,2.726-14.213c1.881-3.18,4.705-5.095,8.469-5.744V6.951z M29.795,6.951
		c-1.883,0.39-3.212,1.363-3.991,2.921c-0.455,0.844-0.812,1.834-1.071,2.969c-0.26,1.137-0.423,2.45-0.487,3.942h5.938v11.391
		H18.698v-6.814c0-6.489,0.908-11.228,2.726-14.213c1.881-3.18,4.672-5.095,8.372-5.744V6.951z"/>
</g>
</svg>
