<?xml version="1.0" encoding="utf-8"?>
<!-- Generator: Adobe Illustrator 16.0.0, SVG Export Plug-In . SVG Version: 6.00 Build 0)  -->
<!DOCTYPE svg PUBLIC "-//W3C//DTD SVG 1.1//EN" "http://www.w3.org/Graphics/SVG/1.1/DTD/svg11.dtd">
<svg version="1.1" id="Layer_1" xmlns="http://www.w3.org/2000/svg" xmlns:xlink="http://www.w3.org/1999/xlink" x="0px" y="0px"
	 width="31.167px" height="29.333px" viewBox="0 0 31.167 29.333" enable-background="new 0 0 31.167 29.333" xml:space="preserve">
<g>
	<path fill="#115F4C" d="M18.99,22.625c1.883-0.389,3.247-1.362,4.089-2.92c0.844-1.623,1.362-3.928,1.558-6.912H18.6V1.403h11.584
		v6.814c0,6.36-0.907,11.098-2.726,14.213c-1.881,3.18-4.705,5.096-8.469,5.744V22.625z M1.424,22.626
		c1.883-0.39,3.211-1.363,3.99-2.921c0.455-0.844,0.813-1.834,1.071-2.969c0.26-1.138,0.423-2.451,0.487-3.943H1.034V1.403H12.52
		v6.814c0,6.489-0.907,11.229-2.725,14.213c-1.882,3.181-4.673,5.096-8.373,5.744v-5.548H1.424z"/>
</g>
</svg>
