<?xml version="1.0" encoding="utf-8"?>
<!-- Generator: Adobe Illustrator 16.0.0, SVG Export Plug-In . SVG Version: 6.00 Build 0)  -->
<!DOCTYPE svg PUBLIC "-//W3C//DTD SVG 1.1//EN" "http://www.w3.org/Graphics/SVG/1.1/DTD/svg11.dtd">
<svg version="1.1" id="Layer_1" xmlns="http://www.w3.org/2000/svg" xmlns:xlink="http://www.w3.org/1999/xlink" x="0px" y="0px"
	 width="1068px" height="686px" viewBox="0 0 1068 686" enable-background="new 0 0 1068 686" xml:space="preserve">
<g>
	<path d="M1041,10c9.374,0,17,7.626,17,17v632c0,9.374-7.626,17-17,17H27c-9.374,0-17-7.626-17-17V27c0-9.374,7.626-17,17-17H1041
		 M1041,0H27C12.088,0,0,12.088,0,27v632c0,14.912,12.088,27,27,27h1014c14.912,0,27-12.088,27-27V27C1068,12.088,1055.912,0,1041,0
		L1041,0z"/>
</g>
</svg>
