<?xml version="1.0" encoding="utf-8"?>
<!-- Generator: Adobe Illustrator 16.0.0, SVG Export Plug-In . SVG Version: 6.00 Build 0)  -->
<!DOCTYPE svg PUBLIC "-//W3C//DTD SVG 1.1//EN" "http://www.w3.org/Graphics/SVG/1.1/DTD/svg11.dtd">
<svg version="1.1" id="Capa_1" xmlns="http://www.w3.org/2000/svg" xmlns:xlink="http://www.w3.org/1999/xlink" x="0px" y="0px"
	 width="14.022px" height="16.022px" viewBox="0 0 14.022 16.022" enable-background="new 0 0 14.022 16.022" xml:space="preserve">
<g>
	<g>
		<path fill="#AAAAAA" d="M0.003,10.736c0,1.847,1.497,3.344,3.344,3.344s3.344-1.497,3.344-3.344c0-1.848-1.497-3.345-3.344-3.345
			c-0.379,0-0.743,0.066-1.083,0.183c0.752-4.317,4.119-7.101,0.999-4.81c-3.46,2.541-3.263,7.87-3.26,7.967
			C0.003,10.733,0.003,10.734,0.003,10.736z"/>
		<path fill="#AAAAAA" d="M7.361,10.736c0,1.847,1.497,3.344,3.345,3.344c1.847,0,3.344-1.497,3.344-3.344
			c0-1.848-1.497-3.345-3.344-3.345c-0.38,0-0.744,0.066-1.083,0.183c0.752-4.317,4.119-7.101,0.998-4.81
			c-3.46,2.541-3.263,7.87-3.259,7.967C7.361,10.733,7.361,10.734,7.361,10.736z"/>
	</g>
</g>
</svg>
