<?xml version="1.0" encoding="utf-8"?>
<!-- Generator: Adobe Illustrator 16.0.0, SVG Export Plug-In . SVG Version: 6.00 Build 0)  -->
<!DOCTYPE svg PUBLIC "-//W3C//DTD SVG 1.1//EN" "http://www.w3.org/Graphics/SVG/1.1/DTD/svg11.dtd">
<svg version="1.1" id="Capa_1" xmlns="http://www.w3.org/2000/svg" xmlns:xlink="http://www.w3.org/1999/xlink" x="0px" y="0px"
	 width="600px" height="600px" viewBox="0 0 600 600" enable-background="new 0 0 600 600" xml:space="preserve">
<path d="M532.074,111.873L111.872,532.074c-12.128,12.129-31.817,12.129-43.947-0.001c-12.128-12.129-12.128-31.817,0-43.946
	L488.127,67.926c12.129-12.129,31.816-12.129,43.945,0C544.202,80.056,544.203,99.743,532.074,111.873z"/>
<path d="M111.872,67.926l420.201,420.201c12.13,12.13,12.13,31.818,0.001,43.947s-31.817,12.129-43.947-0.001L67.925,111.872
	c-12.128-12.129-12.128-31.817,0-43.945C80.054,55.797,99.743,55.797,111.872,67.926z"/>
</svg>
