<?xml version="1.0" encoding="utf-8"?>
<!-- Generator: Adobe Illustrator 16.0.0, SVG Export Plug-In . SVG Version: 6.00 Build 0)  -->
<!DOCTYPE svg PUBLIC "-//W3C//DTD SVG 1.1//EN" "http://www.w3.org/Graphics/SVG/1.1/DTD/svg11.dtd">
<svg version="1.1" id="Capa_1" xmlns="http://www.w3.org/2000/svg" xmlns:xlink="http://www.w3.org/1999/xlink" x="0px" y="0px"
	 width="600px" height="600px" viewBox="0 0 600 600" enable-background="new 0 0 600 600" xml:space="preserve">
<path d="M545.851,333.266H51.596c-17.153,0-31.075-13.922-31.075-31.075s13.922-31.075,31.075-31.075h494.254
	c17.153,0,31.074,13.922,31.074,31.075S563.004,333.266,545.851,333.266z"/>
<path d="M545.851,125.022H51.596c-17.153,0-31.075-13.921-31.075-31.074c0-17.153,13.922-31.075,31.075-31.075h494.254
	c17.153,0,31.074,13.922,31.074,31.075C576.925,111.101,563.004,125.022,545.851,125.022z"/>
<path d="M545.851,541.5H51.596c-17.153,0-31.075-13.922-31.075-31.075c0-17.152,13.922-31.074,31.075-31.074h494.254
	c17.153,0,31.074,13.922,31.074,31.074C576.925,527.578,563.004,541.5,545.851,541.5z"/>
</svg>
