<?xml version="1.0" encoding="utf-8"?>
<!-- Generator: Adobe Illustrator 16.0.0, SVG Export Plug-In . SVG Version: 6.00 Build 0)  -->
<!DOCTYPE svg PUBLIC "-//W3C//DTD SVG 1.1//EN" "http://www.w3.org/Graphics/SVG/1.1/DTD/svg11.dtd">
<svg version="1.1" id="Layer_1" xmlns="http://www.w3.org/2000/svg" xmlns:xlink="http://www.w3.org/1999/xlink" x="0px" y="0px"
	 width="158px" height="158px" viewBox="0 0 158 158" enable-background="new 0 0 158 158" xml:space="preserve">
<g>
	<g>
		<g>
			<path fill="#FFFFFF" d="M81.248,106.424v-0.586c-2.992-0.031-5.855-0.195-8.62-0.422c-1.495,3.871-3.609,7.479-6.243,10.699
				c4.976,0.814,10.017,1.268,15.056,1.334L81.248,106.424z"/>
		</g>
	</g>
	<g>
		<g>
			<path fill="#FFFFFF" d="M68.076,84.895c-2.406-11.513-10.895-20.88-22.181-24.424c-3.122-0.943-6.343-1.431-9.595-1.431
				c-8.064,0.033-15.871,3.023-21.822,8.423c-13.236,12.032-14.18,32.555-2.146,45.793c12.033,13.234,32.556,14.178,45.793,2.145
				c6.764-6.146,10.635-14.83,10.602-23.969C68.726,89.252,68.5,87.041,68.076,84.895z M36.3,87.074
				c5.497,0,10.342,3.643,11.838,8.943c1.822,6.537-1.95,13.301-8.52,15.154v2.863c0,1.789-1.463,3.252-3.252,3.252
				c-1.79,0-3.252-1.463-3.252-3.252v-2.83c-5.367-1.465-9.074-6.311-9.107-11.871c0-1.789,1.463-3.252,3.252-3.252
				s3.252,1.463,3.252,3.252c0,3.188,2.604,5.758,5.789,5.758c3.188,0,5.758-2.604,5.758-5.791c0-3.186-2.602-5.754-5.789-5.754
				c-5.561,0-10.408-3.742-11.839-9.107c-1.724-6.504,2.179-13.269,8.716-15.027v-1.397c0-1.789,1.465-3.253,3.253-3.253
				c1.789,0,3.252,1.464,3.252,3.253v1.463c5.302,1.497,8.944,6.343,8.944,11.838c0,1.787-1.465,3.252-3.253,3.252
				s-3.252-1.465-3.252-3.252c0-3.188-2.602-5.789-5.79-5.789c-3.186,0-5.756,2.568-5.789,5.789
				C30.511,84.504,33.115,87.074,36.3,87.074z"/>
		</g>
	</g>
	<g>
		<g>
			<path fill="#FFFFFF" d="M81.15,99.301l-0.195-11.514c-2.018-0.031-4-0.096-5.887-0.227c0.098,1.303,0.162,2.57,0.162,3.838
				c0,2.537-0.26,5.105-0.748,7.611C76.629,99.205,78.873,99.301,81.15,99.301z"/>
		</g>
	</g>
	<g>
		<g>
			<path fill="#FFFFFF" d="M116.762,45.478c-2.242,1.17-4.617,2.112-7.057,2.829c-7.318,2.211-16.91,3.414-26.93,3.414
				c-9.594,0-18.732-1.105-25.79-3.154c-2.439-0.65-4.781-1.562-7.025-2.7l0.229,9.173c3.674,1.365,7.09,3.316,10.179,5.754
				c0.098,0.035,0.163,0.035,0.261,0.065c6.244,1.595,14.114,2.441,22.147,2.441c9.303,0,18.441-1.172,25.045-3.155
				c7.057-2.146,8.617-4.392,8.617-4.813c0-0.455-0.033-0.878,0.324-1.333V45.478L116.762,45.478z"/>
		</g>
	</g>
	<g>
		<g>
			<path fill="#FFFFFF" d="M107.787,32.565c-6.604-2.016-15.742-3.154-25.043-3.154c-9.368,0-18.149,1.139-24.718,3.154
				c-6.861,2.082-8.358,4.131-8.39,4.781c0,0,0.031,0,0.031,0.065c0.164,0.715,2.114,2.926,9.106,4.944
				c6.472,1.886,14.993,2.925,23.97,2.925c9.301,0,18.406-1.138,25.01-3.12c7.057-2.114,8.65-4.359,8.65-4.814
				C116.404,36.923,114.844,34.711,107.787,32.565z"/>
		</g>
	</g>
	<g>
		<g>
			<path fill="#FFFFFF" d="M154.098,122.557v-9.758c-2.178,1.105-4.455,2.049-6.828,2.766c-7.285,2.211-16.814,3.414-26.865,3.414
				c-8.91,0-17.594-1.01-24.424-2.797c-2.797-0.717-5.496-1.691-8.098-2.961l0.162,9.432c0,0.033,0,0.033,0,0.064
				c0,0.488,1.432,2.668,8.295,4.783c6.504,1.982,15.283,3.088,24.684,3.088c9.365,0,18.18-1.139,24.75-3.186
				c6.861-2.146,8.357-4.391,8.357-4.846H154.098L154.098,122.557z"/>
		</g>
	</g>
	<g>
		<g>
			<path fill="#FFFFFF" d="M116.697,63.625c-2.244,1.138-4.586,2.081-7.025,2.798c-7.316,2.211-16.91,3.414-26.961,3.414
				c-4.943,0-9.854-0.325-14.733-0.943c2.635,3.643,4.586,7.74,5.822,12.099c2.797,0.193,5.821,0.324,8.944,0.324
				c0.098,0,0.229,0,0.324,0c5.334-5.854,19.676-8.781,33.629-9.171V63.625L116.697,63.625z"/>
		</g>
	</g>
	<g>
		<g>
			<path fill="#FFFFFF" d="M147.041,97.578c-7.252,2.146-16.684,3.316-26.57,3.316c-9.594,0-18.732-1.105-25.791-3.152
				c-2.439-0.686-4.814-1.596-7.09-2.732l0.129,7.479l0.033,2.732c2.537,3.154,14.668,7.221,32.686,7.221
				c9.398,0,18.277-1.107,24.945-3.123c7.025-2.146,8.553-4.359,8.553-4.813c0-0.359,0.195-0.748,0.195-1.074h0.033v-8.619
				C151.887,95.951,149.512,96.928,147.041,97.578z"/>
		</g>
	</g>
	<g>
		<g>
			<path fill="#FFFFFF" d="M145.512,81.805c-6.635-2.018-15.74-3.09-25.041-3.09h-0.555c-8.648,0-16.877,0.975-23.188,2.764
				c-6.732,1.889-9.041,4.033-9.334,4.912c-0.031,0.064-0.031,0.098-0.031,0.131c0,0,0,0,0.063,0.129
				c0.197,0.684,2.115,2.895,9.107,4.943c6.473,1.855,14.994,2.896,23.969,2.896c9.27,0,18.051-1.076,24.719-3.059
				c7.219-2.146,8.846-4.391,8.877-4.879v-0.031C154.066,86.033,152.439,83.887,145.512,81.805z"/>
		</g>
	</g>
</g>
</svg>
