<?xml version="1.0" encoding="utf-8"?>
<!-- Generator: Adobe Illustrator 16.0.0, SVG Export Plug-In . SVG Version: 6.00 Build 0)  -->
<!DOCTYPE svg PUBLIC "-//W3C//DTD SVG 1.1//EN" "http://www.w3.org/Graphics/SVG/1.1/DTD/svg11.dtd">
<svg version="1.1" id="Layer_1" xmlns="http://www.w3.org/2000/svg" xmlns:xlink="http://www.w3.org/1999/xlink" x="0px" y="0px"
	 width="158px" height="158px" viewBox="0 0 158 158" enable-background="new 0 0 158 158" xml:space="preserve">
<g>
	<path fill="#FFFFFF" d="M97.641,30H19.574C15.721,30,12,33.384,12,37.238v48.334C12,89.426,15.721,93,19.574,93
		c0,0,3.353,0,4.441,0c1.091,0,1.531,0.697,1.531,1.729c0,0.328-0.148,9.35-0.203,12.967c-0.012,0.81,0.295,0.935,0.834,0.393
		c3.146-3.161,13.931-13.06,14.649-13.776c0.84-0.84,1.845-1.312,3.932-1.312C45.435,93,52,93,60,93V69.795
		C60,64.838,64.598,61,69.556,61c0,0,17.444,0,34.444,0V37.238C104,33.384,101.494,30,97.641,30z"/>
	<path fill="#FFFFFF" d="M138.971,67c0,0-3.352,0-4.442,0c-1.089,0-1.529-0.633-1.529-1.66c0-0.332,0.148-9.32,0.202-12.937
		c0.013-0.813-0.295-0.921-0.834-0.379c-3.146,3.161-13.932,13.003-14.648,13.722c-0.842,0.84-1.845,1.254-3.93,1.254
		c-2.089,0-40.016,0-40.016,0C69.92,67,66,70.703,66,74.556v48.335c0,3.854,3.92,7.109,7.773,7.109h65.197
		c3.854,0,7.029-3.255,7.029-7.109V74.556C146,70.703,142.825,67,138.971,67z"/>
</g>
</svg>
