<?xml version="1.0" encoding="utf-8"?>
<!-- Generator: Adobe Illustrator 16.0.0, SVG Export Plug-In . SVG Version: 6.00 Build 0)  -->
<!DOCTYPE svg PUBLIC "-//W3C//DTD SVG 1.1//EN" "http://www.w3.org/Graphics/SVG/1.1/DTD/svg11.dtd">
<svg version="1.1" id="Layer_1" xmlns="http://www.w3.org/2000/svg" xmlns:xlink="http://www.w3.org/1999/xlink" x="0px" y="0px"
	 width="158px" height="158px" viewBox="0 0 158 158" enable-background="new 0 0 158 158" xml:space="preserve">
<g>
	<path fill="#FFFFFF" d="M52.268,61.306c0,11.181-7.064,20.245-18.246,20.245h-0.74c-11.182,0-20.246-9.064-19.773-20.245
		l9.594-30.999c0,0,0.436-2.439,3.803-2.439s25.363,0,25.363,0V61.306z"/>
	<path fill="#FFFFFF" d="M104.546,61.306c0,11.181,7.063,20.245,18.245,20.245h0.74c11.182,0,20.246-9.064,19.773-20.245
		l-9.594-30.999c0,0-0.436-2.439-3.803-2.439c-3.368,0-25.362,0-25.362,0V61.306z"/>
	<path fill="#FFFFFF" d="M122.713,87h-0.797c-11.193,0-20.409-5.72-21.638-15h-0.287c-1.229,9.28-10.444,15-21.639,15h-0.796
		c-11.193,0-20.41-5.72-21.229-15h-0.208c-1.229,9.28-10.443,15-21.638,15h-0.796C28.293,87,24,85.82,20,83.046v42.737
		c0,3.54,2.535,6.217,6.155,6.217H61v0.187v-3.049v-27.529C61,98.069,63.035,95,66.655,95H89.07c3.619,0,6.93,3.069,6.93,6.608V132
		l0,0l0,0h33.57c3.619,0,7.43-2.677,7.43-6.217V83.524C133,86.011,127.789,87,122.713,87z"/>
	<path fill="#FFFFFF" d="M97.537,62.174c0,10.701-8.675,19.377-19.376,19.377h-0.71c-10.7,0-19.375-8.676-18.924-19.377
		L58.52,27.867h39.01L97.537,62.174z"/>
</g>
</svg>
