<?xml version="1.0" encoding="utf-8"?>
<!-- Generator: Adobe Illustrator 16.0.0, SVG Export Plug-In . SVG Version: 6.00 Build 0)  -->
<!DOCTYPE svg PUBLIC "-//W3C//DTD SVG 1.1//EN" "http://www.w3.org/Graphics/SVG/1.1/DTD/svg11.dtd">
<svg version="1.1" id="Layer_1" xmlns="http://www.w3.org/2000/svg" xmlns:xlink="http://www.w3.org/1999/xlink" x="0px" y="0px"
	 width="119.463px" height="124.161px" viewBox="0 0 119.463 124.161" enable-background="new 0 0 119.463 124.161"
	 xml:space="preserve">
<g>
	<path fill="#010101" d="M24.53,105.851c-1.883,0-3.409-1.527-3.409-3.41V22.735c0-7.757,6.31-14.066,14.066-14.066H96.14
		c1.883,0,3.409,1.526,3.409,3.409v78.429c0,1.883-1.526,3.41-3.409,3.41c-1.884,0-3.41-1.527-3.41-3.41V15.488H35.188
		c-3.996,0-7.247,3.251-7.247,7.247v79.706C27.94,104.324,26.414,105.851,24.53,105.851z"/>
	<path fill="#010101" d="M96.14,117.787H36.466c-8.462,0-15.345-6.885-15.345-15.346s6.883-15.344,15.345-15.344H96.14
		c1.883,0,3.409,1.527,3.409,3.41s-1.526,3.41-3.409,3.41H36.466c-4.701,0-8.525,3.822-8.525,8.523s3.824,8.525,8.525,8.525H96.14
		c1.883,0,3.409,1.527,3.409,3.41S98.022,117.787,96.14,117.787z"/>
	<path fill="#010101" d="M96.14,105.851H36.466c-1.884,0-3.41-1.527-3.41-3.41s1.526-3.408,3.41-3.408H96.14
		c1.883,0,3.409,1.525,3.409,3.408S98.022,105.851,96.14,105.851z"/>
	<path fill="#010101" d="M39.875,93.917c-1.883,0-3.409-1.527-3.409-3.41V12.078c0-1.883,1.526-3.409,3.409-3.409
		c1.885,0,3.41,1.526,3.41,3.409v78.429C43.285,92.39,41.76,93.917,39.875,93.917z"/>
</g>
</svg>
