<?xml version="1.0" encoding="utf-8"?>
<!-- Generator: Adobe Illustrator 16.0.0, SVG Export Plug-In . SVG Version: 6.00 Build 0)  -->
<!DOCTYPE svg PUBLIC "-//W3C//DTD SVG 1.1//EN" "http://www.w3.org/Graphics/SVG/1.1/DTD/svg11.dtd">
<svg version="1.1" id="Layer_1" xmlns="http://www.w3.org/2000/svg" xmlns:xlink="http://www.w3.org/1999/xlink" x="0px" y="0px"
	 width="119.463px" height="124.161px" viewBox="0 0 119.463 124.161" enable-background="new 0 0 119.463 124.161"
	 xml:space="preserve">
<g>
	<g>
		<path fill="#010101" d="M79.389,81.36c12.027-18.874,10.516-16.52,10.862-17.012c4.379-6.177,6.693-13.446,6.693-21.023
			c0-20.094-16.306-36.646-36.426-36.646c-20.055,0-36.426,16.521-36.426,36.646c0,7.572,2.363,15.032,6.886,21.292l10.67,16.743
			c-11.408,1.753-30.802,6.977-30.802,18.48c0,4.193,2.737,10.17,15.776,14.826c9.104,3.252,21.143,5.043,33.896,5.043
			c23.848,0,49.672-6.727,49.672-19.869C110.19,88.335,90.819,83.116,79.389,81.36z M36.511,60.974
			c-0.037-0.058-0.075-0.112-0.114-0.167c-3.764-5.178-5.681-11.313-5.681-17.482c0-16.561,13.335-30.023,29.803-30.023
			c16.434,0,29.803,13.469,29.803,30.023c0,6.179-1.881,12.106-5.44,17.147c-0.319,0.421,1.346-2.165-24.362,38.174L36.511,60.974z
			 M60.519,113.086c-26.049,0-43.049-7.656-43.049-13.246c0-3.756,8.735-9.933,28.092-12.341l12.164,19.088
			c0.608,0.954,1.661,1.532,2.793,1.532c1.131,0,2.185-0.578,2.792-1.532L75.476,87.5c19.356,2.408,28.092,8.585,28.092,12.341
			C103.567,105.382,86.721,113.086,60.519,113.086z"/>
	</g>
</g>
<g>
	<g>
		<path fill="#010101" d="M60.519,26.768c-9.13,0-16.558,7.428-16.558,16.557c0,9.13,7.428,16.558,16.558,16.558
			s16.558-7.428,16.558-16.558C77.076,34.196,69.648,26.768,60.519,26.768z M60.519,53.259c-5.478,0-9.935-4.456-9.935-9.935
			c0-5.478,4.457-9.934,9.935-9.934s9.935,4.456,9.935,9.934C70.453,48.803,65.996,53.259,60.519,53.259z"/>
	</g>
</g>
</svg>
