<?xml version="1.0" encoding="utf-8"?>
<!-- Generator: Adobe Illustrator 16.0.0, SVG Export Plug-In . SVG Version: 6.00 Build 0)  -->
<!DOCTYPE svg PUBLIC "-//W3C//DTD SVG 1.1//EN" "http://www.w3.org/Graphics/SVG/1.1/DTD/svg11.dtd">
<svg version="1.1" id="Layer_1" xmlns="http://www.w3.org/2000/svg" xmlns:xlink="http://www.w3.org/1999/xlink" x="0px" y="0px"
	 width="24.269px" height="24.269px" viewBox="0 0 24.269 24.269" enable-background="new 0 0 24.269 24.269" xml:space="preserve">
<g>
	<g>
		<g>
			<path fill="#FFFFFF" d="M21.545,4.775H2.996c-0.403,0-0.729,0.326-0.729,0.729c0,0.403,0.326,0.729,0.729,0.729h18.549
				c0.202,0,0.384-0.082,0.516-0.213c0.132-0.133,0.214-0.314,0.214-0.516C22.275,5.102,21.947,4.775,21.545,4.775z"/>
		</g>
	</g>
	<g>
		<g>
			<path fill="#FFFFFF" d="M21.545,10.935H2.996c-0.403,0-0.729,0.327-0.729,0.729c0,0.403,0.326,0.73,0.729,0.73h18.549
				c0.202,0,0.384-0.082,0.516-0.213c0.132-0.133,0.214-0.314,0.214-0.517C22.275,11.261,21.947,10.935,21.545,10.935z"/>
		</g>
	</g>
	<g>
		<g>
			<path fill="#FFFFFF" d="M21.545,18.065H2.996c-0.403,0-0.729,0.326-0.729,0.729c0,0.402,0.326,0.73,0.729,0.73h18.549
				c0.202,0,0.384-0.083,0.516-0.214c0.132-0.131,0.214-0.314,0.214-0.516C22.275,18.392,21.947,18.065,21.545,18.065z"/>
		</g>
	</g>
</g>
</svg>
