<?xml version="1.0" encoding="utf-8"?>
<!-- Generator: Adobe Illustrator 16.0.0, SVG Export Plug-In . SVG Version: 6.00 Build 0)  -->
<!DOCTYPE svg PUBLIC "-//W3C//DTD SVG 1.1//EN" "http://www.w3.org/Graphics/SVG/1.1/DTD/svg11.dtd">
<svg version="1.1" id="Layer_1" xmlns="http://www.w3.org/2000/svg" xmlns:xlink="http://www.w3.org/1999/xlink" x="0px" y="0px"
	 width="24.269px" height="24.269px" viewBox="0 0 24.269 24.269" enable-background="new 0 0 24.269 24.269" xml:space="preserve">
<g>
	<g>
		<g>
			<path fill="#FFFFFF" d="M10.603,2.26c-4.6,0-8.342,3.743-8.342,8.342s3.742,8.342,8.342,8.342c4.601,0,8.343-3.742,8.343-8.342
				S15.202,2.26,10.603,2.26z M10.603,17.485c-3.795,0-6.883-3.088-6.883-6.883c0-3.795,3.088-6.883,6.883-6.883
				s6.883,3.087,6.883,6.883C17.485,14.397,14.397,17.485,10.603,17.485z"/>
		</g>
	</g>
	<g>
		<g>
			<path fill="#FFFFFF" d="M21.795,20.763l-5.302-5.302c-0.285-0.284-0.747-0.284-1.031,0c-0.285,0.284-0.285,0.747,0,1.032
				l5.301,5.301c0.143,0.143,0.329,0.215,0.516,0.215c0.188,0,0.374-0.072,0.517-0.215C22.079,21.51,22.079,21.048,21.795,20.763z"
				/>
		</g>
	</g>
</g>
</svg>
