<?xml version="1.0" encoding="utf-8"?>
<!-- Generator: Adobe Illustrator 16.0.0, SVG Export Plug-In . SVG Version: 6.00 Build 0)  -->
<!DOCTYPE svg PUBLIC "-//W3C//DTD SVG 1.1//EN" "http://www.w3.org/Graphics/SVG/1.1/DTD/svg11.dtd">
<svg version="1.1" id="Layer_1" xmlns="http://www.w3.org/2000/svg" xmlns:xlink="http://www.w3.org/1999/xlink" x="0px" y="0px"
	 width="60.834px" height="61.25px" viewBox="0 0 60.834 61.25" enable-background="new 0 0 60.834 61.25" xml:space="preserve">
<g>
	<circle fill="#808080" cx="30.386" cy="30.732" r="29.918"/>
	<path fill="#DEDEDD" d="M19.44,37.091l-0.747-0.753c-0.318-0.314-0.318-0.83,0-1.143l9.093-9.175
		c2.27-2.351,2.905-2.204,4.915,0.054l9.379,9.414c0.316,0.318,0.316,0.831,0,1.145l-0.749,0.752
		c-0.323,0.318-0.844,0.316-1.158-0.016c0,0-7.235-7.41-8.584-8.773s-1.329-1.371-2.702,0c-1.371,1.373-8.284,8.477-8.284,8.477
		C20.287,37.408,19.764,37.414,19.44,37.091L19.44,37.091z"/>
</g>
</svg>
