<?xml version="1.0" encoding="utf-8"?>
<!-- Generator: Adobe Illustrator 16.0.0, SVG Export Plug-In . SVG Version: 6.00 Build 0)  -->
<!DOCTYPE svg PUBLIC "-//W3C//DTD SVG 1.1//EN" "http://www.w3.org/Graphics/SVG/1.1/DTD/svg11.dtd">
<svg version="1.1" id="Layer_1" xmlns="http://www.w3.org/2000/svg" xmlns:xlink="http://www.w3.org/1999/xlink" x="0px" y="0px"
	 width="12px" height="12px" viewBox="0 0 12 12" enable-background="new 0 0 12 12" xml:space="preserve">
<g opacity="0.7">
	<path d="M6.127,10.131c-2.208,0-4.004-1.796-4.004-4.004c0-2.208,1.796-4.004,4.004-4.004c2.208,0,4.004,1.796,4.004,4.004
		C10.131,8.335,8.335,10.131,6.127,10.131z"/>
	<path d="M6.127,3.123c1.656,0,3.004,1.348,3.004,3.004S7.783,9.131,6.127,9.131S3.123,7.783,3.123,6.127S4.471,3.123,6.127,3.123
		 M6.127,1.123c-2.763,0-5.004,2.241-5.004,5.004c0,2.764,2.241,5.004,5.004,5.004c2.764,0,5.004-2.24,5.004-5.004
		C11.131,3.364,8.891,1.123,6.127,1.123L6.127,1.123z"/>
</g>
</svg>
