<?xml version="1.0" standalone="no"?>
<!DOCTYPE svg PUBLIC "-//W3C//DTD SVG 20010904//EN"
 "http://www.w3.org/TR/2001/REC-SVG-20010904/DTD/svg10.dtd">
<svg version="1.0" xmlns="http://www.w3.org/2000/svg"
 width="1080.000000pt" height="1080.000000pt" viewBox="0 0 1080.000000 1080.000000"
 preserveAspectRatio="xMidYMid meet">
<metadata>
Created by potrace 1.14, written by Peter Selinger 2001-2017
</metadata>
<g transform="translate(0.000000,1080.000000) scale(0.100000,-0.100000)"
fill="#000000" stroke="none">
<path d="M3975 7459 c-147 -4 -231 -11 -280 -23 -38 -9 -117 -28 -175 -42 -58
-14 -166 -43 -240 -65 -74 -21 -169 -45 -211 -54 -42 -8 -138 -35 -215 -59
-146 -46 -331 -96 -449 -120 -38 -8 -142 -36 -230 -61 -242 -71 -257 -74 -357
-89 -173 -27 -362 -66 -503 -106 -77 -21 -192 -49 -255 -60 -187 -34 -427
-102 -515 -146 -62 -31 -77 -49 -81 -95 -8 -117 0 -1034 12 -1294 13 -303 25
-842 28 -1303 l2 -362 26 -26 c50 -51 157 -61 307 -29 44 9 145 14 306 15 132
1 310 4 395 8 85 3 234 6 330 5 201 -1 1015 -2 1420 -3 505 0 1364 -8 1460
-14 52 -3 172 -8 265 -11 94 -3 215 -8 270 -11 153 -10 1627 -10 1735 0 52 4
156 9 230 11 588 15 1003 30 1070 40 55 8 338 18 560 19 303 2 316 7 402 166
14 25 46 85 73 134 26 49 84 143 129 209 45 65 94 140 110 166 17 25 64 98
105 161 42 63 82 126 89 139 6 13 56 87 110 165 54 77 124 182 156 231 67 106
108 166 176 258 l50 68 0 112 c1 62 1 146 0 187 0 41 -2 466 -4 943 -2 622 -6
871 -14 879 -8 8 -131 12 -404 14 -216 1 -465 5 -553 8 -88 3 -259 8 -380 11
-121 3 -233 8 -250 11 -61 9 -2821 22 -3355 16 -91 -1 -383 -1 -650 1 -267 1
-579 -1 -695 -4z m3375 -75 c626 -3 929 -8 1075 -19 58 -4 225 -7 240 -4 6 1
14 1 19 0 48 -9 1274 -14 1366 -5 64 6 65 6 40 -12 -14 -10 -39 -29 -56 -43
-17 -14 -44 -35 -59 -46 -28 -19 -179 -140 -201 -160 -6 -5 -37 -32 -69 -60
-32 -27 -70 -61 -84 -75 -14 -14 -42 -38 -61 -54 -19 -15 -53 -45 -75 -65 -22
-20 -72 -63 -110 -96 -39 -33 -92 -81 -120 -106 -27 -26 -83 -74 -124 -108
l-73 -61 -202 5 c-110 2 -402 7 -648 10 -245 3 -473 7 -505 9 -275 16 -475 25
-695 31 -86 2 -190 7 -230 10 -40 3 -120 8 -178 11 -58 3 -123 7 -145 9 -22 1
-76 6 -120 10 -44 3 -116 8 -160 10 -44 3 -80 5 -80 6 0 2 -236 11 -317 13
-43 0 -78 4 -78 8 0 4 -11 3 -25 -2 -18 -7 -25 -6 -25 3 0 8 -4 7 -10 -3 -7
-11 -10 -11 -10 -2 0 9 -5 10 -19 2 -11 -5 -22 -6 -25 -2 -3 5 -20 10 -38 10
-52 3 -88 9 -94 15 -3 3 -17 2 -30 -3 -13 -5 -25 -6 -28 -2 -7 11 -598 8 -616
-3 -36 -21 24 34 73 67 190 129 491 317 587 368 36 19 67 37 70 40 3 3 34 20
70 39 36 19 68 39 72 45 4 6 8 7 8 2 0 -5 8 -2 18 6 9 8 98 57 197 109 l180
94 105 5 c58 3 193 3 300 1 107 -2 508 -5 890 -7z m-2565 -15 c88 -1 369 1
625 5 l465 6 -52 -30 c-29 -17 -55 -30 -59 -30 -4 0 -15 -6 -23 -14 -9 -8 -23
-16 -31 -18 -8 -2 -17 -5 -20 -8 -3 -3 -27 -17 -55 -31 -81 -41 -185 -100
-255 -142 -35 -22 -105 -62 -155 -89 -89 -50 -277 -164 -503 -307 -147 -92
-159 -98 -202 -95 -19 1 -143 4 -275 8 -132 3 -251 9 -265 12 -27 7 -670 12
-683 6 -12 -6 -202 -12 -542 -17 -728 -10 -1128 -20 -1200 -30 -58 -7 -612
-14 -637 -7 -15 4 -6 10 38 24 75 24 306 87 359 97 39 8 100 24 445 111 242
62 374 96 570 146 96 25 211 54 255 65 44 11 123 34 175 49 52 16 115 34 140
40 25 6 81 23 125 37 44 14 118 35 165 48 47 12 126 35 175 49 50 15 98 29
108 31 9 2 21 6 25 9 5 3 22 8 38 10 16 3 40 8 54 11 14 3 34 8 45 10 11 3 56
15 100 28 87 26 6 25 1050 16z m5415 -674 c1 -319 1 -690 2 -825 0 -135 1
-279 1 -320 0 -172 -9 -213 -68 -295 -12 -16 -42 -65 -66 -107 -23 -43 -47
-78 -51 -78 -4 0 -8 -7 -8 -15 0 -8 -4 -15 -10 -15 -5 0 -10 -4 -10 -9 0 -6
-12 -22 -26 -38 -14 -15 -48 -66 -77 -113 -28 -47 -58 -93 -67 -102 -9 -10
-37 -55 -62 -100 -26 -46 -69 -114 -98 -153 -28 -38 -77 -108 -110 -155 -32
-47 -77 -111 -100 -143 -22 -32 -70 -108 -105 -170 l-65 -111 -1 74 c0 41 -2
100 -4 130 -2 30 -6 116 -10 190 -3 74 -8 155 -10 180 -6 62 -14 278 -19 500
-9 362 -19 593 -32 705 -2 22 -6 117 -9 210 -3 94 -7 220 -9 281 -3 92 -1 119
14 152 22 50 108 141 327 352 113 109 125 119 183 160 19 13 37 27 40 30 3 3
32 27 65 55 33 27 62 52 65 55 3 3 32 27 65 55 33 27 71 60 85 73 14 13 54 44
90 70 36 25 67 50 69 55 1 4 5 7 7 5 1 -2 3 -265 4 -583z m-6770 -190 c0 11
617 12 645 2 8 -4 17 -3 19 2 3 4 28 5 55 1 28 -3 206 -6 396 -6 190 1 345 -1
345 -4 0 -3 71 -5 157 -5 86 0 185 -2 220 -5 40 -4 63 -2 63 5 0 7 3 7 8 0 4
-6 17 -10 30 -9 12 1 22 -3 22 -8 0 -5 9 -4 20 2 11 6 20 7 20 3 0 -8 75 -13
277 -16 68 -1 123 -6 123 -10 0 -5 6 -5 13 0 6 4 23 6 37 5 20 -2 22 -1 10 7
-9 7 -10 11 -3 11 6 0 14 -4 18 -9 3 -6 37 -9 75 -7 39 2 70 -1 70 -6 0 -5 6
-6 13 -1 17 11 81 10 89 -2 5 -6 8 -5 8 4 0 10 3 11 14 2 9 -8 16 -8 20 -2 4
6 18 6 36 1 19 -5 30 -5 30 1 0 6 7 6 19 -1 14 -7 22 -7 26 0 4 6 12 7 18 3
20 -12 47 -14 47 -2 0 6 5 7 13 2 6 -4 54 -9 106 -10 52 -1 101 -5 108 -7 7
-3 13 0 13 7 0 7 3 8 8 2 4 -5 36 -10 72 -11 63 -1 216 -13 249 -19 32 -6 275
-18 596 -30 105 -4 210 -9 235 -11 101 -8 638 -23 975 -28 231 -3 285 -12 285
-49 0 -12 7 -53 15 -92 8 -38 17 -97 20 -130 3 -33 8 -87 12 -120 3 -33 7 -85
9 -115 13 -225 25 -373 30 -382 2 -3 6 -71 9 -150 3 -79 8 -174 11 -213 3 -38
8 -140 9 -225 5 -205 12 -341 30 -522 7 -66 7 -220 0 -293 -2 -27 -6 -94 -9
-149 -8 -133 -16 -194 -30 -205 -19 -16 -132 -23 -421 -26 -269 -3 -422 -8
-605 -21 -47 -4 -110 -8 -140 -10 -30 -1 -111 -6 -180 -11 -69 -4 -197 -7
-285 -7 -145 0 -220 4 -385 20 -70 6 -273 6 -325 -1 -22 -3 -62 -8 -90 -10
-27 -2 -50 -4 -50 -5 0 -5 -371 -10 -755 -12 -416 -1 -742 5 -835 17 -22 2
-123 7 -224 10 -102 3 -187 7 -190 9 -3 2 -44 6 -91 10 -47 4 -98 9 -115 11
-16 2 -100 4 -185 4 -85 0 -344 0 -575 1 -231 0 -994 2 -1695 3 -701 2 -1285
6 -1297 11 -22 7 -26 14 -39 76 -20 100 -23 214 -28 1000 -4 656 -8 867 -22
1095 -8 135 -11 319 -5 330 3 5 6 48 6 95 1 47 5 93 9 103 14 31 58 45 166 52
58 4 116 9 130 11 28 4 268 12 535 19 99 2 216 7 260 11 73 6 586 8 1180 5
227 -2 516 7 524 15 3 2 8 -1 13 -8 4 -7 8 -8 8 -3z"/>
<path d="M6880 5590 c-119 -34 -217 -174 -214 -305 2 -115 105 -200 255 -212
114 -9 190 34 234 132 54 121 38 214 -53 305 -42 41 -69 59 -102 68 -73 18
-94 20 -120 12z m206 -102 c94 -83 88 -209 -12 -274 -52 -34 -149 9 -184 81
-24 51 -21 86 13 148 45 80 121 99 183 45z"/>
<path d="M4659 5516 c-70 -28 -91 -43 -129 -91 -43 -55 -55 -144 -31 -233 22
-81 92 -126 209 -138 51 -5 64 -2 122 28 73 37 123 94 141 161 25 91 -29 223
-110 271 -49 28 -135 29 -202 2z m208 -67 c68 -22 95 -132 56 -221 -33 -73
-100 -96 -179 -63 -26 11 -40 26 -56 61 -62 141 41 269 179 223z"/>
<path d="M2690 5490 c-45 -12 -110 -50 -140 -82 -38 -40 -73 -131 -72 -190 1
-55 32 -131 67 -164 31 -29 138 -63 197 -62 178 1 294 209 209 376 -36 71 -62
95 -125 116 -48 16 -90 18 -136 6z m182 -111 c15 -18 32 -55 38 -84 14 -66 -5
-120 -58 -166 -31 -28 -41 -31 -83 -27 -51 5 -68 17 -92 64 -36 70 -17 164 46
220 35 33 44 36 81 31 30 -4 48 -14 68 -38z"/>
</g>
</svg>
