<?xml version="1.0" encoding="utf-8"?>
<!-- Generator: Adobe Illustrator 16.0.0, SVG Export Plug-In . SVG Version: 6.00 Build 0)  -->
<!DOCTYPE svg PUBLIC "-//W3C//DTD SVG 1.1//EN" "http://www.w3.org/Graphics/SVG/1.1/DTD/svg11.dtd">
<svg version="1.1" id="Capa_1" xmlns="http://www.w3.org/2000/svg" xmlns:xlink="http://www.w3.org/1999/xlink" x="0px" y="0px"
	 width="600px" height="600px" viewBox="0 0 600 600" enable-background="new 0 0 600 600" xml:space="preserve">
<g>
	<g>
		<g>
			<path fill="#4477BE" stroke="#4477BE" stroke-width="8" stroke-miterlimit="10" d="M300,108.846
				c-66.671,0-120.91,54.24-120.91,120.911c0,66.67,54.239,120.912,120.91,120.912c66.67,0,120.91-54.241,120.91-120.911
				C420.91,163.087,366.67,108.846,300,108.846z M300,316.121c-47.621,0-86.365-38.744-86.365-86.365s38.744-86.365,86.365-86.365
				s86.365,38.744,86.365,86.365S347.621,316.121,300,316.121z"/>
		</g>
	</g>
	<path fill="#4477BE" stroke="#4477BE" stroke-width="8" stroke-miterlimit="10" d="M300,5.209
		c-123.815,0-224.548,100.732-224.548,224.547c0,74.958,21.448,107.896,120.489,238.75c0.002-0.003,0.004-0.005,0.006-0.007
		c3.162,3.86,7.963,6.325,13.34,6.325c9.52,0,17.236-7.718,17.236-17.236c0-4.525-1.756-8.629-4.607-11.705
		c-0.006-0.01-0.005-0.029-0.012-0.035C127.83,321.523,109.998,293.329,109.998,229.756c0-104.767,85.235-190.001,190.001-190.001
		s190.002,85.235,190.002,190.001c0,68.176-20.532,95.257-134.477,245.546c-16.587,21.877-34.987,46.146-55.53,73.453
		c-0.073-0.097-1.662,5.837-2.451,8.203c-5.401,8.778-12.28,29.7-11.364,30.922c3.261,4.35,8.381,6.909,13.819,6.909
		c5.438,0,10.557-2.563,13.818-6.91c26.148-34.881,49.037-65.072,69.234-91.707c117.121-154.478,141.494-186.625,141.494-266.417
		C524.547,105.941,423.816,5.209,300,5.209z"/>
	<path fill="#4477BE" stroke="#4477BE" stroke-width="8" stroke-miterlimit="10" d="M286.873,566.093
		C286.617,566.432,286.967,565.86,286.873,566.093c-3.261,4.19-5.065,10.654-3.5,16.155c2.607,9.168,12.151,14.487,21.318,11.881
		c4.158-1.184,7.512-3.802,9.706-7.156c5.317-7.067,10.814-14.371,16.505-21.922c-7.885-8.649-15.863-17.223-23.521-26.178
		C300.069,548.565,293.037,557.904,286.873,566.093z"/>
</g>
</svg>
