<?xml version="1.0" encoding="utf-8"?>
<!-- Generator: Adobe Illustrator 16.0.0, SVG Export Plug-In . SVG Version: 6.00 Build 0)  -->
<!DOCTYPE svg PUBLIC "-//W3C//DTD SVG 1.1//EN" "http://www.w3.org/Graphics/SVG/1.1/DTD/svg11.dtd">
<svg version="1.1" id="Capa_1" xmlns="http://www.w3.org/2000/svg" xmlns:xlink="http://www.w3.org/1999/xlink" x="0px" y="0px"
	 width="600px" height="600px" viewBox="0 0 600 600" enable-background="new 0 0 600 600" xml:space="preserve">
<g>
	<g>
		<path d="M300,105.468c-67.849,0-123.047,55.199-123.047,123.047S232.151,351.563,300,351.563
			c67.848,0,123.047-55.199,123.047-123.047S367.848,105.468,300,105.468z M300,316.406c-48.463,0-87.891-39.428-87.891-87.891
			s39.428-87.891,87.891-87.891s87.891,39.428,87.891,87.891S348.463,316.406,300,316.406z"/>
	</g>
</g>
<path d="M300,0C173.997,0,71.484,102.512,71.484,228.515c0,76.284,21.827,109.803,122.618,242.967
	c0.002-0.002,0.004-0.004,0.006-0.006c3.217,3.928,8.104,6.438,13.576,6.438c9.688,0,17.541-7.854,17.541-17.541
	c0-4.605-1.787-8.781-4.689-11.912c-0.006-0.01-0.005-0.029-0.012-0.037c-95.736-126.52-113.884-155.213-113.884-219.909
	c0-106.618,86.741-193.359,193.359-193.359s193.359,86.741,193.359,193.359c0,69.381-20.895,96.94-136.853,249.885
	c-16.88,22.264-35.605,46.961-56.511,74.752c-15.141-20.119-31.849-42.191-44.825-59.313c-0.26-0.344-0.481-0.566-0.682-0.723
	c-3.195-4.359-8.339-7.201-14.158-7.201c-9.699,0-17.563,7.861-17.563,17.561c0,4.4,1.629,8.41,4.302,11.492
	c17.622,23.242,37.122,49.008,58.867,78c3.319,4.426,8.53,7.031,14.063,7.031c5.534,0,10.743-2.607,14.063-7.033
	c26.611-35.496,49.904-66.221,70.457-93.326c119.191-157.209,143.995-189.924,143.995-271.125C528.516,102.512,426.004,0,300,0z"/>
</svg>
