<?xml version="1.0" encoding="utf-8"?>
<!-- Generator: Adobe Illustrator 16.0.0, SVG Export Plug-In . SVG Version: 6.00 Build 0)  -->
<!DOCTYPE svg PUBLIC "-//W3C//DTD SVG 1.1//EN" "http://www.w3.org/Graphics/SVG/1.1/DTD/svg11.dtd">
<svg version="1.1" id="Capa_1" xmlns="http://www.w3.org/2000/svg" xmlns:xlink="http://www.w3.org/1999/xlink" x="0px" y="0px"
	 width="600px" height="600px" viewBox="0 0 600 600" enable-background="new 0 0 600 600" xml:space="preserve">
<g>
	<g>
		<path fill="#4477BE" d="M167.808,138.033c-8.55-8.558-22.423-8.558-30.974,0c-31.748,31.748-47.352,75.974-42.817,121.347
			c1.131,11.303,10.654,19.729,21.773,19.729c0.731,0,1.468-0.037,2.198-0.11c12.041-1.204,20.824-11.946,19.62-23.979
			c-3.228-32.245,7.784-63.597,30.199-86.014C176.366,160.457,176.366,146.583,167.808,138.033z"/>
	</g>
</g>
<g>
	<g>
		<path fill="#4477BE" d="M254.553,3.106c-138.097,0-250.447,112.35-250.447,250.447s112.35,250.446,250.447,250.446
			s250.446-112.351,250.446-250.446C504.999,115.456,392.648,3.106,254.553,3.106z M254.553,460.189
			c-113.942,0-206.636-92.695-206.636-206.638c0-113.942,92.693-206.636,206.636-206.636c113.936,0,206.637,92.694,206.637,206.636
			C461.189,367.494,368.494,460.189,254.553,460.189z"/>
	</g>
</g>
<g>
	<g>
		<path fill="#4477BE" d="M590.583,558.608L431.405,399.432c-8.559-8.558-22.417-8.558-30.976,0c-8.558,8.551-8.558,22.425,0,30.976
			l159.179,159.177c4.277,4.278,9.879,6.417,15.486,6.417s11.208-2.139,15.487-6.417
			C599.139,581.032,599.139,567.159,590.583,558.608z"/>
	</g>
</g>
</svg>
